<svg width="293" height="120" viewBox="0 0 293 120" fill="none" xmlns="http://www.w3.org/2000/svg">
<circle cx="58" cy="62" r="58" fill="#34D399"/>
<circle cx="58" cy="74" r="36" fill="black"/>
<circle cx="39" cy="26" r="12" fill="#D9D9D9"/>
<circle cx="67.5" cy="9.5" r="9.5" fill="#10B981"/>
<circle cx="87.5" cy="22.5" r="3.5" fill="#C9A84C"/>
<path d="M130.528 53V23.9091H150.131V28.9801H136.679V35.9119H149.122V40.983H136.679V47.929H150.188V53H130.528ZM155.021 53V23.9091H161.171V47.929H173.643V53H155.021ZM177.716 53V23.9091H197.318V28.9801H183.866V35.9119H196.31V40.983H183.866V47.929H197.375V53H177.716ZM213.856 23.9091H219.935V44.1932C219.935 46.0682 219.514 47.697 218.671 49.0795C217.838 50.4621 216.678 51.5275 215.191 52.2756C213.704 53.0237 211.976 53.3977 210.006 53.3977C208.254 53.3977 206.664 53.09 205.234 52.4744C203.813 51.8494 202.686 50.9025 201.853 49.6335C201.02 48.3551 200.608 46.75 200.617 44.8182H206.739C206.758 45.5852 206.915 46.2434 207.208 46.7926C207.511 47.3324 207.923 47.7491 208.444 48.0426C208.974 48.3267 209.599 48.4688 210.319 48.4688C211.076 48.4688 211.716 48.3078 212.237 47.9858C212.767 47.6544 213.169 47.1714 213.444 46.5369C213.719 45.9025 213.856 45.1212 213.856 44.1932V23.9091ZM225.021 53V23.9091H244.623V28.9801H231.171V35.9119H243.614V40.983H231.171V47.929H244.68V53H225.021ZM130.528 101V71.9091H136.679V95.929H149.151V101H130.528ZM153.224 101V71.9091H172.826V76.9801H159.374V83.9119H171.817V88.983H159.374V95.929H172.883V101H153.224ZM197.006 81.3125C196.807 80.6212 196.527 80.0104 196.168 79.4801C195.808 78.9403 195.367 78.4858 194.847 78.1165C194.335 77.7377 193.748 77.4489 193.085 77.25C192.432 77.0511 191.707 76.9517 190.912 76.9517C189.425 76.9517 188.118 77.321 186.991 78.0597C185.874 78.7983 185.003 79.8731 184.378 81.2841C183.753 82.6856 183.44 84.3996 183.44 86.4261C183.44 88.4527 183.748 90.1761 184.364 91.5966C184.979 93.017 185.85 94.1013 186.977 94.8494C188.104 95.5881 189.435 95.9574 190.969 95.9574C192.361 95.9574 193.549 95.7112 194.534 95.2188C195.528 94.7169 196.286 94.0114 196.807 93.1023C197.337 92.1932 197.602 91.1184 197.602 89.8778L198.852 90.0625H191.352V85.4318H203.526V89.0966C203.526 91.6534 202.986 93.8504 201.906 95.6875C200.827 97.5152 199.34 98.9261 197.446 99.9205C195.552 100.905 193.384 101.398 190.94 101.398C188.213 101.398 185.817 100.796 183.753 99.5938C181.688 98.3816 180.079 96.6629 178.923 94.4375C177.777 92.2027 177.205 89.5511 177.205 86.483C177.205 84.125 177.545 82.0227 178.227 80.1761C178.919 78.3201 179.884 76.7481 181.125 75.4602C182.366 74.1723 183.81 73.1922 185.457 72.5199C187.105 71.8475 188.89 71.5114 190.812 71.5114C192.46 71.5114 193.994 71.7528 195.415 72.2358C196.835 72.7093 198.095 73.3816 199.193 74.2528C200.301 75.1241 201.205 76.161 201.906 77.3636C202.607 78.5568 203.057 79.8731 203.256 81.3125H197.006ZM212.261 101H205.67L215.713 71.9091H223.639L233.668 101H227.077L219.79 78.5568H219.562L212.261 101ZM211.849 89.5653H227.418V94.3665H211.849V89.5653ZM261.469 82.0938H255.248C255.134 81.2888 254.902 80.5739 254.552 79.9489C254.201 79.3144 253.752 78.7746 253.202 78.3295C252.653 77.8845 252.019 77.5436 251.299 77.3068C250.589 77.0701 249.817 76.9517 248.984 76.9517C247.478 76.9517 246.166 77.3258 245.049 78.0739C243.932 78.8125 243.065 79.892 242.45 81.3125C241.834 82.7235 241.526 84.4375 241.526 86.4545C241.526 88.5284 241.834 90.2708 242.45 91.6818C243.075 93.0928 243.946 94.1581 245.063 94.8778C246.181 95.5975 247.473 95.9574 248.941 95.9574C249.765 95.9574 250.527 95.8485 251.228 95.6307C251.938 95.4129 252.568 95.0956 253.117 94.679C253.666 94.2528 254.121 93.7367 254.481 93.1307C254.85 92.5246 255.106 91.8333 255.248 91.0568L261.469 91.0852C261.308 92.4205 260.906 93.7083 260.262 94.9489C259.628 96.1799 258.771 97.2831 257.691 98.2585C256.621 99.2244 255.343 99.9915 253.856 100.56C252.379 101.118 250.707 101.398 248.842 101.398C246.247 101.398 243.927 100.811 241.881 99.6364C239.845 98.4621 238.236 96.7623 237.052 94.5369C235.878 92.3116 235.29 89.6174 235.29 86.4545C235.29 83.2822 235.887 80.5833 237.08 78.358C238.273 76.1326 239.893 74.4375 241.938 73.2727C243.984 72.0985 246.285 71.5114 248.842 71.5114C250.527 71.5114 252.09 71.7481 253.529 72.2216C254.978 72.6951 256.261 73.3864 257.379 74.2955C258.496 75.1951 259.405 76.2983 260.106 77.6051C260.816 78.9119 261.271 80.4081 261.469 82.0938ZM264.175 71.9091H271.065L277.698 84.4375H277.982L284.616 71.9091H291.505L280.894 90.7159V101H274.786V90.7159L264.175 71.9091Z" fill="#10B981"/>
</svg>
